<?xml version="1.0" encoding="UTF-8"?>
<svg version="1.1" xmlns="http://www.w3.org/2000/svg" width="512" height="512">
<path d="M0 0 C168.96 0 337.92 0 512 0 C512 168.96 512 337.92 512 512 C343.04 512 174.08 512 0 512 C0 343.04 0 174.08 0 0 Z " fill="#000000" transform="translate(0,0)"/>
<path d="M0 0 C20.85882972 14.18546287 32.59675917 35.26458657 43.234375 57.51953125 C43.70115662 58.49341293 43.70115662 58.49341293 44.17736816 59.48696899 C48.81803778 69.188597 53.21254141 78.96588324 57.39102173 88.87475586 C75.31071753 131.30295452 93.13472237 173.41987862 126.234375 206.51953125 C128.64035905 198.01121894 130.71655904 189.48158155 132.546875 180.83203125 C135.41938894 167.30510196 138.82198854 153.91860706 142.234375 140.51953125 C143.5905101 135.19156097 144.9317353 129.86092284 146.234375 124.51953125 C146.39502441 123.87064941 146.55567383 123.22176758 146.72119141 122.55322266 C148.02534444 117.23375133 149.17147134 111.89220845 150.234375 106.51953125 C150.42064453 105.59430664 150.60691406 104.66908203 150.79882812 103.71582031 C153.67722129 88.87989893 154.61152805 74.4024948 154.609375 59.33203125 C154.61118774 58.51376862 154.61300049 57.69550598 154.61486816 56.85244751 C154.61036473 38.92766094 153.8722519 21.02416949 144.1875 5.359375 C143.234375 3.51953125 143.234375 3.51953125 143.234375 0.51953125 C145.10674871 -0.44392319 146.9824049 -1.40099977 148.859375 -2.35546875 C149.90351563 -2.88914062 150.94765625 -3.4228125 152.0234375 -3.97265625 C159.52898909 -7.49716101 166.52843426 -9.07871278 174.546875 -6.35546875 C181.75173203 -1.32882431 183.53227315 4.15671127 185.234375 12.51953125 C185.67677643 16.468311 185.75826193 20.36059574 185.734375 24.33203125 C185.73010498 25.44078613 185.72583496 26.54954102 185.72143555 27.69189453 C185.31609442 48.29124479 180.70507612 68.7245956 175.234375 88.51953125 C174.58312799 90.91140243 173.93210299 93.30333407 173.28125 95.6953125 C168.48210207 113.24918312 168.48210207 113.24918312 166.20581055 121.03979492 C156.44991738 154.45773305 145.33229352 196.66759824 162.234375 229.51953125 C165.24958579 234.37250903 168.53317178 238.20103486 173.234375 241.51953125 C172.7427189 246.09193298 171.07129171 248.30207508 167.984375 251.64453125 C166.83195312 252.91683594 166.83195312 252.91683594 165.65625 254.21484375 C158.93871192 260.60733967 152.89755389 260.82826441 143.95703125 260.7265625 C127.00068132 259.78355458 114.32712107 250.57292806 102.234375 239.51953125 C101.56792969 238.92398438 100.90148437 238.3284375 100.21484375 237.71484375 C80.68560346 219.3290016 68.01261313 192.78008834 56.47070312 169.05859375 C55.54299445 167.15334687 54.61134434 165.25001833 53.67773438 163.34765625 C46.3352391 148.3824807 39.1961782 133.34785418 32.359375 118.14453125 C27.91625057 108.26487498 23.37071582 98.50747181 18.13671875 89.015625 C16.23673236 85.52386356 14.51231822 81.97992643 12.796875 78.39453125 C6.62116275 66.00041749 -1.18531432 55.46085933 -10.765625 45.51953125 C-10.94625488 46.25776123 -11.12688477 46.99599121 -11.31298828 47.7565918 C-15.4184816 64.48589353 -19.80716144 81.08242789 -24.67529297 97.60742188 C-45.22010522 162.39830967 -45.22010522 162.39830967 -36.34375 227.80078125 C-33.63108881 232.64273563 -30.26018528 236.32338698 -25.98828125 239.8515625 C-24.765625 241.51953125 -24.765625 241.51953125 -24.8125 243.8671875 C-26.00940027 247.19790589 -27.70643218 249.41237214 -29.953125 252.14453125 C-30.70980469 253.08554687 -31.46648437 254.0265625 -32.24609375 254.99609375 C-36.36407512 259.12045959 -40.31576556 260.9484904 -46.140625 260.95703125 C-52.45318275 260.74290107 -57.0264012 259.33346115 -61.484375 254.75390625 C-73.54400847 239.73848027 -70.61132423 217.50990303 -68.953125 199.51953125 C-68.88311279 198.73368652 -68.81310059 197.9478418 -68.7409668 197.13818359 C-67.29262484 183.12839929 -63.63894368 169.34111531 -60.453125 155.64453125 C-60.05164863 153.91010014 -59.65028269 152.17564346 -59.24902344 150.44116211 C-57.05539447 140.97546872 -54.81296338 131.52314787 -52.515625 122.08203125 C-50.56850021 114.04289229 -48.73047432 105.98655613 -47.015625 97.89453125 C-46.81678711 96.97099854 -46.61794922 96.04746582 -46.41308594 95.09594727 C-43.77883039 82.41605083 -42.42681392 69.9323386 -42.50488281 57.00292969 C-42.51565633 54.88838292 -42.50487854 52.77467853 -42.4921875 50.66015625 C-42.47506116 34.83679349 -44.36380748 18.94296391 -52.8125 5.2265625 C-53.765625 3.51953125 -53.765625 3.51953125 -53.765625 1.51953125 C-51.35181154 0.20154106 -48.93484904 -1.10997793 -46.515625 -2.41796875 C-45.83371094 -2.79115234 -45.15179688 -3.16433594 -44.44921875 -3.54882812 C-43.78535156 -3.90654297 -43.12148437 -4.26425781 -42.4375 -4.6328125 C-41.8300293 -4.96273193 -41.22255859 -5.29265137 -40.59667969 -5.63256836 C-28.0543038 -11.44052455 -11.15157334 -6.7357131 0 0 Z " fill="#FCFCFC" transform="translate(198.765625,129.48046875)"/>
</svg>
